<svg width="106" height="93" viewBox="0 0 106 93" fill="none" xmlns="http://www.w3.org/2000/svg">
<g clip-path="url(#clip0_2304_33)">
<path d="M4.131 25.105C-4.608 44.221 -0.777996 71.63 28.223 85.628C57.224 99.626 91.131 88.604 98.436 76.529C112.786 52.807 103.131 14.104 91.131 6.10396C79.016 -1.97304 79.869 1.50396 51.631 0.103958C29.041 -1.01604 12.131 7.60496 4.131 25.105Z" fill="#D9D3CC"/>
<path d="M34.1 68.396C34.379 72.928 39.66 73.226 44.398 73.494L74.542 75.195C79.28 75.462 82.59 76.9149 85.257 71.283C87.924 65.651 90.441 17.907 90.159 16.446C89.877 14.985 86.28 14.141 86.518 13.711C87.231 12.423 91.056 13.244 90.524 9.96196C89.992 6.67996 86.255 7.33996 83.119 6.85996C81.631 6.63296 80.026 6.57196 78.414 6.56696L51.744 5.06196C50.144 4.88596 48.547 4.76596 47.045 4.82396C43.875 4.94796 42.134 4.76696 41.019 6.62496C40.255 10.557 42.476 11.044 43.776 12.202C42.845 12.691 40.217 13.161 40.041 14.34C39.865 15.519 32.927 49.356 34.1 68.396Z" fill="#49A971"/>
<path fill-rule="evenodd" clip-rule="evenodd" d="M82.183 14.119L84.712 14.127L84.716 13.061L82.187 13.053L82.183 14.119ZM45.437 12.045L47.966 12.053L47.97 10.987L45.441 10.979L45.437 12.045ZM58.736 12.794L55.454 12.474L55.52 11.414L58.802 11.734L58.736 12.794ZM77.659 13.728L80.721 13.901L80.781 12.837L77.719 12.664L77.659 13.728ZM65.248 13.063L61.254 12.838L61.277 11.774L65.271 11.999L65.248 13.063ZM72.256 13.424L75.318 13.597L75.378 12.533L72.316 12.36L72.256 13.424ZM70.653 13.333L66.659 13.108L66.682 12.044L70.676 12.269L70.653 13.333ZM53.304 12.309L50.427 11.84L50.562 10.788L53.439 11.257L53.304 12.309Z" fill="#252525"/>
<path d="M68.258 73.666C67.724 78.176 62.435 78.176 57.69 78.176H27.497C22.752 78.176 19.365 79.44 17.02 73.666C14.675 67.892 14.852 20.083 15.216 18.64C15.58 17.197 19.218 16.557 19.005 16.114C18.366 14.788 14.501 15.392 15.216 12.145C15.931 8.89796 19.626 9.76896 22.783 9.46596C24.282 9.32296 25.887 9.35296 27.497 9.43896L54.21 9.43796C55.817 9.35296 57.419 9.32296 58.915 9.46496C62.073 9.76796 63.821 9.68496 64.83 11.602C65.371 15.571 63.127 15.932 61.763 17.015C62.665 17.556 65.262 18.173 65.371 19.36C65.48 20.547 70.501 54.722 68.258 73.666Z" fill="#4E2096"/>
<path d="M46.198 24.953C33.551 25.869 26.932 25.622 15.155 26.577C14.968 30.514 15.16 38.291 15.036 43.536C27.995 43.756 34.703 40.657 47.28 39.747C47.531 33.52 47.339 30.833 46.198 24.953Z" fill="#FFA840"/>
<path fill-rule="evenodd" clip-rule="evenodd" d="M52.149 15.5269L55.048 15.2209L55.16 16.2809L52.261 16.5869L52.149 15.5269ZM27.846 16.6299H24.779V15.5639H27.846V16.6299ZM33.258 16.6299H30.19V15.5639H33.257L33.258 16.6299ZM34.883 15.5639H38.884V16.6299H34.883V15.5639ZM46.768 15.6989L50.062 15.5649L50.105 16.6299L46.811 16.7639L46.768 15.6989ZM23.308 16.7639L20.782 16.6299L20.839 15.5659L23.365 15.6999L23.308 16.7639ZM60.112 16.7639L57.586 16.6299L57.643 15.5659L60.169 15.6999L60.112 16.7639ZM40.295 15.6009H44.296V16.6669H40.295V15.6009Z" fill="#252525"/>
<path d="M33.429 69.7779C34.293 72.6719 56.764 73.8729 62.336 69.9709C64.243 68.6359 61.944 54.9579 58.578 53.7649C55.212 52.5719 40.477 51.8809 36.733 54.7939C34.16 56.7949 32.264 65.8799 33.429 69.7779Z" fill="#EA534A"/>
<path d="M38.549 56.638C38.549 56.638 40.164 59.917 47.358 60.273C54.552 60.629 57.896 55.962 57.896 55.962C57.896 55.962 47.318 52.866 38.549 56.638Z" fill="#FFA840"/>
<path d="M40.125 55.28C39.273 55.174 38.958 55.584 38.876 55.976C38.826 56.216 38.987 56.434 39.199 56.557L41.676 57.991C42.027 58.194 42.472 58.084 42.517 57.682C42.556 57.337 42.516 56.887 42.291 56.363C41.75 55.1 41.568 55.461 40.125 55.28ZM47.242 58.348C46.681 58.582 46.639 58.975 46.739 59.285C46.811 59.507 47.045 59.614 47.278 59.625L49.131 59.712C49.574 59.733 49.918 59.374 49.688 58.994C49.5258 58.7333 49.319 58.5031 49.077 58.314C48.19 57.604 48.231 57.934 47.241 58.347L47.242 58.348ZM48.594 57.326C49.053 57.368 49.304 57.263 49.432 57.12C49.609 56.922 49.396 56.663 49.151 56.558L47.463 55.835C47.164 55.707 46.792 55.792 46.789 56.117C46.788 56.288 46.834 56.494 46.968 56.725C47.374 57.426 47.51 57.226 48.593 57.326H48.594ZM44.341 54.183C43.782 54.114 43.6 54.987 43.555 55.653C43.528 56.049 43.851 56.344 44.249 56.344H45.5C45.749 56.344 45.994 56.225 46.042 55.98C46.092 55.726 46.081 55.371 45.896 54.946C45.507 54.056 45.378 54.31 44.341 54.183ZM52.865 56.349C53.712 56.264 53.953 57.414 53.998 58.201C54.02 58.588 53.704 58.87 53.316 58.87H50.991C50.77 58.87 50.547 58.779 50.472 58.571C50.365 58.273 50.338 57.809 50.644 57.239C51.199 56.201 51.384 56.497 52.865 56.349ZM49.466 53.823C49.86 53.755 49.991 54.602 50.026 55.264C50.048 55.673 49.715 55.985 49.305 55.985H48.83C48.537 55.985 48.266 55.819 48.24 55.527C48.217 55.2089 48.2561 54.8893 48.355 54.586C48.633 53.696 48.725 53.95 49.466 53.823ZM45.697 57.797C46.039 57.738 45.996 58.116 45.893 58.502C45.8332 58.6998 45.7122 58.8736 45.5474 58.9983C45.3827 59.123 45.1826 59.1922 44.976 59.196H44.501C44.208 59.196 43.937 59.03 43.911 58.738C43.888 58.4199 43.9271 58.1003 44.026 57.797C44.304 56.907 44.957 57.924 45.697 57.797ZM56.84 56.367C56.741 56.754 55.915 56.529 55.296 56.291C54.913 56.144 54.765 55.713 54.932 55.339L55.126 54.905C55.245 54.638 55.508 54.458 55.784 54.553C56.0839 54.6616 56.3597 54.8277 56.596 55.042C57.295 55.659 57.026 55.639 56.84 56.367ZM51.895 55.443C51.985 55.795 52.467 55.649 52.89 55.445C53.26 55.267 53.394 54.811 53.226 54.437L53.032 54.003C52.913 53.736 52.65 53.556 52.374 53.651C52.0741 53.7596 51.7982 53.9257 51.562 54.14C50.863 54.757 51.709 54.715 51.895 55.443Z" fill="#252525"/>
<path d="M23.989 82.756C25.725 88.569 70.864 90.981 82.057 83.143C85.889 80.46 81.27 52.985 74.508 50.588C67.746 48.191 38.147 46.804 30.627 52.655C25.459 56.674 21.65 74.924 23.989 82.756Z" fill="#EA534A"/>
<path d="M34.271 56.36C34.271 56.36 37.515 62.947 51.966 63.661C66.417 64.375 73.134 55.001 73.134 55.001C73.134 55.001 51.886 48.782 34.271 56.36Z" fill="#FFA840"/>
<path fill-rule="evenodd" clip-rule="evenodd" d="M39.335 53.939L40.427 56.885L38.986 57.419L37.894 54.473L39.335 53.939ZM41.818 59.301L43.494 57.368L44.655 58.375L42.979 60.308L41.818 59.301ZM47.023 56.678L45.668 55.192L46.803 54.156L48.158 55.641L47.023 56.678ZM65.833 58.415L64.478 56.93L65.613 55.894L66.968 57.379L65.833 58.415ZM49.998 61.241L50.582 58.089L52.093 58.369L51.509 61.521L49.998 61.241ZM56.549 57.807V55.82H58.086V57.807H56.549ZM54.487 53.879L53.129 52.333L54.283 51.319L55.641 52.865L54.487 53.879ZM58.654 60.096L61.559 59.064L62.073 60.512L59.168 61.544L58.654 60.096ZM62.331 54.175L63.893 52.35L65.061 53.349L63.499 55.174L62.331 54.175Z" fill="#252525"/>
</g>
<defs>
<clipPath id="clip0_2304_33">
<rect width="106" height="93" fill="white"/>
</clipPath>
</defs>
</svg>
