<svg width="110" height="97" viewBox="0 0 110 97" fill="none" xmlns="http://www.w3.org/2000/svg">
<path d="M6.977 71.3539C-2.566 52.6259 0.0960026 25.0789 28.476 9.86094C56.856 -5.35706 91.201 4.21494 99.012 15.9689C114.357 39.0599 107 60.0279 101 71.3519C94.183 84.2179 83.649 91.7149 55.496 94.3129C32.974 96.3919 15.713 88.4979 6.977 71.3539Z" fill="#D9D3CC"/>
<path d="M27.569 8.31296C26.547 9.30096 28.668 14.602 29.217 17.747C31.161 18.217 34.855 18.058 34.636 16.8C34.417 15.542 33.899 8.01696 32.988 7.36596C32.077 6.71496 29.207 6.72996 27.569 8.31296Z" fill="#EA534A"/>
<path d="M27.797 71.337C30.951 78.45 38.254 78.026 41.512 76.924C45.117 76.294 52.865 74.462 55.012 72.171C57.696 69.307 54.301 60.697 52.31 53.86C48.666 41.346 46.276 44.957 43.648 39.029C41.02 33.101 41.025 30.284 40.349 26.411C40.046 24.679 39.221 18.247 35.59 15.688C31.959 13.129 25.649 16.72 25.655 19.773C25.668 26.113 25.67 28.975 24.73 32.708C23.962 35.757 21.244 42.942 21.012 46.176C20.78 49.41 23.854 62.445 27.796 71.336L27.797 71.337Z" fill="#FFA840"/>
<path fill-rule="evenodd" clip-rule="evenodd" d="M34.625 40.823L33.581 41.027C32.285 41.253 31.046 42.491 30.075 44.224C29.12 45.929 28.515 47.955 28.404 49.481C28.386 49.726 28.429 50.156 28.548 50.77L29.072 52.93L30.888 58.649C32.314 62.76 33.982 66.986 34.868 68.79C35.634 70.35 37.306 70.977 39.309 71.01C41.3 71.043 43.452 70.476 44.878 69.844C46.7 69.036 47.851 68.262 48.591 67.431C49.318 66.614 49.68 65.705 49.853 64.556C49.965 63.813 49.812 62.871 49.463 61.781C49.117 60.7 48.599 59.531 48.037 58.351L47.35 56.935L46.381 54.915C45.89 53.843 45.479 52.819 45.33 51.969C45.129 50.818 44.412 50.323 43.297 49.552L42.929 49.296C41.623 48.381 40.119 47.144 39.207 44.347C38.342 41.696 37.624 40.901 36.947 40.667C36.596 40.546 36.182 40.546 35.614 40.634C35.332 40.677 35.029 40.739 34.688 40.81L34.625 40.823ZM37.306 39.627C38.545 40.055 39.396 41.378 40.253 44.007C41.063 46.491 42.36 47.555 43.56 48.395L43.935 48.653C45.013 49.388 46.13 50.15 46.415 51.781C46.537 52.478 46.892 53.389 47.382 54.458C47.671 55.09 47.993 55.747 48.327 56.428L49.032 57.879C49.599 59.069 50.144 60.293 50.513 61.448C50.879 62.593 51.093 63.729 50.943 64.723C50.746 66.031 50.315 67.154 49.414 68.166C48.525 69.164 47.213 70.016 45.325 70.854C43.782 71.538 41.472 72.15 39.292 72.114C37.124 72.078 34.917 71.39 33.88 69.278C32.963 67.411 31.277 63.133 29.848 59.012C29.132 56.948 28.476 54.912 28.01 53.225C27.8003 52.4843 27.6191 51.7357 27.467 50.981C27.346 50.356 27.277 49.804 27.306 49.403C27.43 47.699 28.089 45.518 29.115 43.687C30.125 41.884 31.585 40.259 33.392 39.943C33.731 39.8824 34.0691 39.8164 34.406 39.745L34.464 39.733C34.7897 39.6629 35.1172 39.6009 35.446 39.547C36.07 39.451 36.7 39.418 37.307 39.628L37.306 39.627Z" fill="#252525"/>
<path d="M44.257 9.26405C45.203 8.82805 60.835 11.4551 68.038 14.0151L66.624 19.519L42.053 13.6511C42.273 12.8331 43.311 9.70105 44.257 9.26505V9.26405Z" fill="#252525"/>
<path fill-rule="evenodd" clip-rule="evenodd" d="M42.161 18.193L44.186 11.027L43.204 10.75L41.179 17.916L42.161 18.193ZM43.638 18.87L45.631 11.097L44.643 10.844L42.65 18.617L43.638 18.87ZM45.249 19.106L47.088 11.045L46.093 10.818L44.253 18.879L45.249 19.106ZM46.566 19.522L48.693 11.308L47.705 11.052L45.578 19.266L46.566 19.522ZM48.171 19.784L50.317 12.298L49.336 12.017L47.19 19.503L48.171 19.784ZM49.936 20.306L51.928 12.533L50.94 12.28L48.947 20.053L49.936 20.306ZM51.544 20.555L53.536 12.782L52.548 12.529L50.556 20.302L51.544 20.555ZM53.152 20.804L55.145 13.031L54.156 12.778L52.164 20.551L53.152 20.804ZM54.626 21.493L56.619 13.72L55.631 13.467L53.638 21.241L54.626 21.493ZM56.237 21.729L58.077 13.668L57.082 13.441L55.242 21.502L56.237 21.729ZM57.555 22.145L59.682 13.931L58.694 13.675L56.567 21.889L57.555 22.145ZM59.163 22.394L61.29 14.18L60.302 13.924L58.175 22.138L59.163 22.394ZM60.771 22.643L62.898 14.429L61.91 14.173L59.783 22.387L60.771 22.643ZM62.375 22.906L64.789 14.539L63.809 14.256L61.395 22.623L62.375 22.906Z" fill="#252525"/>
<path d="M88.591 26.2329C86.221 26.5619 84.779 25.2929 84.779 25.2929C84.779 25.2929 83.098 24.3659 81.718 24.669C79.993 25.0479 79.356 24.0739 78.071 23.3569C76.465 22.4609 76.195 22.5689 73.99 22.5249C71.785 22.4809 71.903 21.2069 69.698 21.1629C67.493 21.1189 67.657 20.747 66.426 20.009C65.195 19.271 64.432 20.4949 63.635 19.2779C62.838 18.0609 64.757 13.457 66.481 13.0779C68.205 12.6989 89.178 16.021 91.543 20.298C92.656 22.311 90.961 25.9049 88.591 26.2329Z" fill="#EA534A"/>
<path d="M88.595 85.34C87.915 88.33 83.046 88.026 78.679 87.753L50.89 86.015C46.522 85.742 43.352 86.394 41.436 82.391C39.52 78.388 44.013 35.806 44.409 34.86C44.805 33.914 45.705 32.902 46.212 32.199C46.651 30.778 46.28 31.117 46.347 30.034C46.414 28.951 48.839 29.171 51.758 29.15C53.144 29.141 54.619 29.253 56.098 29.403L80.686 30.94C82.169 30.975 83.644 31.048 85.015 31.229C87.909 31.613 89.512 30.719 90.36 32.062L90.202 34.587C90.855 35.352 91.856 36.139 91.751 37.82C91.646 39.501 91.455 72.777 88.597 85.339L88.595 85.34Z" fill="#4E2096"/>
<path d="M68.403 43.4151C59.362 42.5151 53.341 42.1231 43.459 42.5791L42.219 55.5401C42.219 55.5401 49.818 54.9291 53.307 55.1471L66.916 55.9981L68.403 43.4151ZM63.96 65.6731L55.235 75.3301C54.683 75.9411 55.063 76.9241 55.881 77.0131C58.95 77.3461 64.842 78.0561 68.145 78.9181L81.81 82.3061C81.9517 82.3403 82.0992 82.3429 82.242 82.3139C82.3848 82.2849 82.5196 82.2249 82.6367 82.1381C82.7538 82.0513 82.8504 81.9399 82.9198 81.8117C82.9891 81.6834 83.0295 81.5416 83.038 81.3961L83.76 69.8451C83.7754 69.5961 83.6978 69.3503 83.5422 69.1554C83.3866 68.9604 83.1642 68.8302 82.918 68.7901C81.017 68.4821 76.598 67.7341 74.567 67.1371C72.357 66.4861 66.61 65.6141 64.843 65.3541C64.6812 65.3306 64.5161 65.3473 64.3622 65.4028C64.2084 65.4582 64.0706 65.5507 63.961 65.6721L63.96 65.6731Z" fill="#F3EEE8"/>
<path fill-rule="evenodd" clip-rule="evenodd" d="M67.569 68.475C67.4852 68.4624 67.3996 68.4713 67.3202 68.5008C67.2408 68.5304 67.1702 68.5797 67.115 68.644L62.36 74.14C62.2986 74.2132 62.2581 74.3017 62.2428 74.3961C62.2276 74.4905 62.2381 74.5872 62.2734 74.6761C62.3087 74.765 62.3673 74.8426 62.4431 74.9009C62.5189 74.9591 62.6091 74.9958 62.704 75.007L69.553 76.137L77.446 78.164C77.5184 78.1821 77.5939 78.184 77.667 78.1695C77.7402 78.1551 77.8093 78.1246 77.8694 78.0804C77.9295 78.0362 77.979 77.9793 78.0146 77.9137C78.0501 77.8481 78.0708 77.7755 78.075 77.701L78.488 71.092C78.4955 70.9642 78.4555 70.8381 78.3758 70.7379C78.2961 70.6377 78.1822 70.5705 78.056 70.549L73.232 69.549C72.005 69.175 68.87 68.673 67.568 68.473L67.569 68.475ZM66.343 67.977C66.5111 67.7821 66.7258 67.6331 66.9672 67.5439C67.2086 67.4547 67.4686 67.4282 67.723 67.467L73.531 68.575C74.623 68.908 76.923 69.323 78.228 69.545C78.6025 69.6087 78.9402 69.8085 79.1763 70.106C79.4124 70.4036 79.5302 70.7779 79.507 71.157L79.094 77.766C79.08 77.9899 79.0169 78.208 78.9092 78.4048C78.8015 78.6016 78.6519 78.7723 78.4709 78.9049C78.2899 79.0374 78.0819 79.1285 77.8618 79.1717C77.6417 79.215 77.4147 79.2093 77.197 79.155L69.287 77.123C67.547 76.653 64.572 76.254 62.585 76.022C61.362 75.879 60.773 74.416 61.587 73.474L66.343 67.977ZM67.729 34.422C61.026 33.867 54.513 33.46 47.342 33.912L47.278 32.894C54.526 32.437 61.099 32.849 67.813 33.405L71.2 33.693C76.853 34.179 82.698 34.682 89.236 34.791L89.219 35.811C82.642 35.702 76.757 35.196 71.104 34.709L67.729 34.422Z" fill="#252525"/>
</svg>
