<svg width="52" height="48" viewBox="0 0 52 48" fill="none" xmlns="http://www.w3.org/2000/svg">
<path d="M51.3548 14.1034C51.6276 15.3502 51.5246 16.65 51.0588 17.8382C50.5929 19.0265 49.7852 20.0499 48.7377 20.7791C47.6902 21.5083 46.45 21.9105 45.1739 21.9349C43.8979 21.9592 42.6432 21.6046 41.5687 20.9159C40.4941 20.2272 39.6479 19.2354 39.1371 18.0657C38.6263 16.8961 38.4737 15.6013 38.6988 14.345C38.9239 13.0887 39.5164 11.9273 40.4015 11.0078C41.2866 10.0882 42.4245 9.4518 43.6713 9.17896C45.3432 8.8131 47.092 9.12639 48.5329 10.0499C49.9739 10.9734 50.9889 12.4315 51.3548 14.1034ZM13.531 22.3803C13.2582 21.1335 12.6218 19.9956 11.7022 19.1105C10.7827 18.2254 9.62133 17.6329 8.36502 17.4078C7.10872 17.1828 5.81388 17.3353 4.64426 17.8461C3.47464 18.3569 2.48277 19.2031 1.79407 20.2777C1.10537 21.3522 0.750775 22.6069 0.775129 23.883C0.799483 25.159 1.20169 26.3992 1.93089 27.4467C2.66009 28.4942 3.68353 29.3019 4.87179 29.7678C6.06005 30.2336 7.35976 30.3366 8.60656 30.0638C10.2785 29.6979 11.7366 28.6829 12.6601 27.2419C13.5836 25.801 13.8969 24.0522 13.531 22.3803ZM17.0485 16.8922C18.2953 16.6193 19.4332 15.9829 20.3183 15.0634C21.2034 14.1438 21.796 12.9825 22.021 11.7262C22.2461 10.4698 22.0936 9.17501 21.5827 8.00539C21.0719 6.83577 20.2257 5.8439 19.1512 5.1552C18.0766 4.4665 16.822 4.11191 15.5459 4.13626C14.2698 4.16061 13.0296 4.56282 11.9821 5.29202C10.9347 6.02122 10.1269 7.04466 9.66108 8.23292C9.19525 9.42118 9.09224 10.7209 9.36508 11.9677C9.73094 13.6396 10.746 15.0977 12.1869 16.0212C13.6278 16.9447 15.3766 17.258 17.0485 16.8922ZM33.2587 13.3449C34.5055 13.0721 35.6434 12.4357 36.5285 11.5161C37.4136 10.5966 38.0061 9.43522 38.2312 8.17891C38.4563 6.9226 38.3037 5.62777 37.7929 4.45815C37.2821 3.28853 36.4359 2.29666 35.3613 1.60796C34.2868 0.919257 33.0321 0.564664 31.7561 0.589018C30.48 0.613372 29.2398 1.01558 28.1923 1.74478C27.1448 2.47398 26.3371 3.49742 25.8713 4.68568C25.4054 5.87394 25.3024 7.17365 25.5752 8.42045C25.9411 10.0924 26.9561 11.5505 28.3971 12.474C29.838 13.3975 31.5868 13.7108 33.2587 13.3449ZM41.4624 25.908C40.437 25.6034 39.4818 25.0997 38.6514 24.4257C37.8209 23.7516 37.1316 22.9204 36.6227 21.9796C35.5732 20.0512 33.9261 18.5155 31.929 17.6032C29.932 16.691 27.6928 16.4516 25.548 16.9209C23.4032 17.3903 21.4687 18.543 20.0351 20.206C18.6016 21.8689 17.7465 23.9522 17.5983 26.1427C17.4619 28.2896 16.4795 30.2948 14.8667 31.7184C13.3136 33.0572 12.2512 34.8755 11.8474 36.8858C11.4437 38.8961 11.7217 40.9836 12.6374 42.8182C13.5532 44.6528 15.0544 46.1298 16.9037 47.0154C18.7531 47.9011 20.8449 48.145 22.8483 47.7084C24.0494 47.4492 25.1856 46.9494 26.1883 46.2391C29.3939 44.0149 33.3493 43.1493 37.1909 43.8314C39.5283 44.2926 41.9534 43.831 43.9579 42.5434C45.9624 41.2558 47.3906 39.2421 47.943 36.9247C48.4954 34.6072 48.1292 32.1658 46.9211 30.1124C45.713 28.059 43.7569 26.553 41.4628 25.9102L41.4624 25.908Z" fill="#855EEE"/>
</svg>
