<svg width="110" height="98" viewBox="0 0 110 98" fill="none" xmlns="http://www.w3.org/2000/svg">
<path d="M6.97697 71.835C-2.56603 53.108 0.0959721 25.561 28.476 10.343C56.856 -4.875 91.201 4.697 99.012 16.451C114.357 39.542 107 60.51 101 71.834C94.183 84.7 83.649 92.197 55.496 94.795C32.974 96.874 15.713 88.979 6.97697 71.835Z" fill="#D9D3CC"/>
<path d="M79.216 72.356L79.215 71.776L76.012 13.878L76.18 13.368C76.617 12.063 77.16 10.44 76.529 9.37198C75.766 8.07698 74.703 7.45298 72.511 7.35298C71.473 7.30598 70.367 7.38198 69.26 7.49798L31.081 9.42198C29.966 9.41798 28.856 9.45298 27.826 9.60498C25.655 9.92498 23.97 10.771 23.34 12.137C22.897 13.096 23.335 13.901 23.823 14.799L24.298 15.738L24.528 20.296L24.53 20.876L27.733 78.774L27.565 79.284C27.128 80.589 26.585 82.212 27.217 83.28C27.981 84.575 29.043 85.199 31.235 85.299C32.273 85.346 33.379 85.27 34.486 85.154L72.665 83.23C73.78 83.234 74.89 83.199 75.92 83.047C78.091 82.727 79.776 81.881 80.406 80.515C80.849 79.556 80.411 78.751 79.923 77.853L79.448 76.914L79.216 72.356Z" fill="#49A971"/>
<path d="M59.364 22.4659L24.908 25.7169L25.899 45.3739L61.93 40.1479L59.364 22.4659Z" fill="#FFA840"/>
<path d="M59.061 51.241C58.392 51.568 53.342 53.99 48.686 51.105C44.536 48.524 42.556 42.888 44.255 38.129C46.318 32.366 53.239 29.557 58.674 32.1C63.579 34.391 66.019 40.453 64.556 45.194C63.353 49.093 59.864 50.845 59.061 51.241Z" fill="#F3EEE8"/>
<path d="M55.926 39.799C55.926 40.862 55.73 40.665 56.919 40.665C58.949 40.665 58.711 40.882 58.711 42.637C58.711 44.37 58.948 44.586 56.919 44.586C55.73 44.586 55.926 44.413 55.926 45.497C55.926 47.663 55.709 47.425 53.91 47.425C52.111 47.425 51.879 47.663 51.879 45.497C51.879 44.413 52.075 44.586 50.951 44.586C48.878 44.586 49.115 44.369 49.115 42.637C49.115 40.905 48.878 40.665 50.951 40.665C52.075 40.665 51.879 40.861 51.879 39.799C51.879 37.611 52.117 37.827 53.91 37.827C55.703 37.827 55.926 37.612 55.926 39.799Z" fill="#EA534A"/>
<path fill-rule="evenodd" clip-rule="evenodd" d="M49.664 14.754C42.426 14.846 35.406 15.067 27.766 16.207L27.597 15.199C35.32 14.047 42.404 13.826 49.655 13.733L53.314 13.694C59.42 13.635 65.733 13.574 72.751 13.053L72.833 14.07C65.774 14.594 59.417 14.655 53.31 14.715L49.664 14.754Z" fill="#252525"/>
<path d="M22.194 84.686C22.672 86.703 35.107 87.541 38.19 84.82C39.246 83.889 37.973 74.354 36.11 73.522C34.247 72.69 26.093 72.209 24.022 74.239C22.598 75.634 21.549 81.967 22.193 84.685L22.194 84.686Z" fill="#4E2096"/>
<path fill-rule="evenodd" clip-rule="evenodd" d="M34.661 76.547C33.662 77.085 32.15 77.57 30.055 77.439C28.017 77.312 26.692 76.959 25.86 76.622C25.5437 76.4981 25.2408 76.3423 24.956 76.157L24.732 75.991L24.669 75.936L24.649 75.916L24.641 75.908L24.638 75.905L24.636 75.904L24.635 75.903C24.635 75.903 24.634 75.902 25.026 75.525L25.417 75.147L25.415 75.146L25.413 75.144L25.41 75.141L25.428 75.157C25.45 75.176 25.492 75.209 25.558 75.253C25.7819 75.3973 26.0197 75.5186 26.268 75.615C26.972 75.901 28.178 76.233 30.121 76.354C32.006 76.471 33.316 76.035 34.144 75.59C34.56 75.366 34.859 75.137 35.049 74.969L35.255 74.771L35.299 74.722L35.307 74.713L35.305 74.714L35.73 75.054L36.155 75.393L36.154 75.394L36.153 75.395L36.15 75.398L36.143 75.407L36.121 75.433L36.046 75.516C35.9569 75.61 35.8635 75.6998 35.766 75.785C35.4264 76.0802 35.0543 76.3358 34.657 76.547H34.661Z" fill="#252525"/>
<path d="M36.122 91.433C37.101 93.188 49.395 92.258 51.697 89.387C52.485 88.404 48.818 79.977 46.796 79.479C44.774 78.981 36.73 79.651 35.235 81.763C34.207 83.214 34.803 89.069 36.122 91.433Z" fill="#EA534A"/>
<path fill-rule="evenodd" clip-rule="evenodd" d="M46.749 82.643C45.869 83.381 44.444 84.147 42.25 84.346C40.118 84.539 38.658 84.374 37.712 84.146C37.3505 84.063 36.9978 83.9451 36.659 83.794L36.387 83.654L36.309 83.606L36.284 83.589L36.275 83.582L36.271 83.579L36.269 83.578L36.268 83.577C36.268 83.577 36.267 83.576 36.572 83.163L36.876 82.749L36.875 82.748L36.874 82.747L36.872 82.745L36.869 82.743L36.895 82.759C36.924 82.776 36.978 82.805 37.058 82.843C37.3262 82.9612 37.6052 83.0532 37.891 83.118C38.694 83.312 40.026 83.474 42.059 83.29C44.03 83.112 45.262 82.431 45.996 81.816C46.365 81.507 46.612 81.211 46.765 80.997L46.926 80.748L46.959 80.687L46.965 80.675L47.468 80.924L47.971 81.172L47.97 81.174L47.968 81.178L47.963 81.188L47.948 81.218L47.894 81.318C47.8287 81.4319 47.7576 81.5424 47.681 81.649C47.4138 82.0183 47.1 82.3523 46.749 82.643Z" fill="#252525"/>
<path d="M77.321 72.2319C76.783 72.0599 75.619 72.0709 75.518 70.9059C76.597 63.5659 78.295 57.9839 79.77 54.8959C80.452 53.4689 81.231 53.1459 81.772 53.4109C82.382 53.3129 82.999 53.8459 83.117 55.3909C83.371 58.7349 81.781 64.2859 79.951 71.7599C79.427 72.8279 78.423 72.5839 77.321 72.2319Z" fill="#F3EEE8"/>
<path d="M86.296 31C85.44 30.946 84.551 30.416 84.29 29.379C83.604 26.669 85.071 18.628 86.979 16.245C87.861 15.144 88.993 15.026 89.827 15.372C90.729 15.415 91.7 16.011 92.023 17.384C92.72 20.356 90.588 28.247 88.804 30.399C88.123 31.22 87.094 31.314 86.296 31Z" fill="#4E2096"/>
<path d="M83.025 15.387C83.024 14.766 83.427 14.122 84.298 13.934C86.572 13.439 93.511 14.507 95.648 15.892C96.636 16.532 96.798 17.353 96.548 17.958C96.561 18.612 96.106 19.316 94.952 19.549C92.456 20.052 85.608 18.501 83.675 17.206C82.937 16.712 82.802 15.966 83.025 15.387Z" fill="#4E2096"/>
<path d="M79.192 65.5849C76.792 65.5389 74.226 64.2199 73.33 61.4659C71.447 55.7039 76.254 36.1519 79.396 26.5109C77.643 25.1419 76.767 24.4569 77.79 23.1339C78.813 21.8109 83.433 24.0089 87.531 25.0809C91.629 26.1529 97.277 27.0299 97.47 28.5969C97.663 30.1639 96.1 30.3609 94.541 30.5579C93.311 40.2229 89.681 59.0529 86.099 63.6779C84.33 65.9609 81.472 66.3339 79.192 65.5849Z" fill="#F3EEE8"/>
<path fill-rule="evenodd" clip-rule="evenodd" d="M88.556 34.969L82.434 33.746L82.631 32.76L88.753 33.983L88.556 34.969ZM86.767 42.76L81.086 41.88L81.24 40.886L86.922 41.766L86.767 42.76ZM85.376 50.887L79.254 49.664L79.451 48.678L85.574 49.901L85.376 50.887ZM83.537 58.668L77.717 56.992L78.052 56.044C79.361 56.506 82.415 57.336 83.792 57.696L83.537 58.668Z" fill="#252525"/>
</svg>
