<svg width="106" height="96" viewBox="0 0 106 96" fill="none" xmlns="http://www.w3.org/2000/svg">
<g clip-path="url(#clip0_2304_25)">
<path d="M4.131 28.097C-4.607 47.213 -0.777996 74.622 28.223 88.621C57.224 102.62 91.131 91.597 98.436 79.522C112.786 55.8 103.131 17.097 91.131 9.097C79.016 1.02 79.869 4.497 51.631 3.097C29.041 1.977 12.131 10.597 4.131 28.097Z" fill="#D9D3CC"/>
<path d="M76.349 53.377C75.071 59.702 26.175 66.874 13.161 59.732C8.70601 57.288 10.839 27.759 17.949 24.532C25.059 21.305 57.143 16.808 65.948 22.225C71.999 25.946 78.071 44.856 76.349 53.377Z" fill="#49A971"/>
<path d="M62.369 26.5159C62.369 26.5159 59.531 33.8139 43.871 36.0489C28.211 38.2839 19.909 29.0579 19.909 29.0579C19.909 29.0579 42.389 20.3059 62.369 26.5159Z" fill="#F3EEE8"/>
<path d="M23.979 83.513C26.141 90.541 82.338 93.458 96.274 83.981C101.044 80.738 95.294 47.516 86.876 44.618C78.458 41.72 41.607 40.043 32.244 47.117C25.81 51.976 21.066 74.044 23.979 83.513Z" fill="#EA534A"/>
<path d="M36.779 51.5961C36.779 51.5961 40.818 59.5611 58.809 60.4241C76.8 61.2871 85.163 49.953 85.163 49.953C85.163 49.953 58.71 42.4331 36.779 51.5961Z" fill="#FFA840"/>
<path fill-rule="evenodd" clip-rule="evenodd" d="M42.939 48.705L44.298 52.267L42.795 52.841L41.436 49.279L42.939 48.705ZM46.298 55.226L48.385 52.889L49.585 53.961L47.498 56.298L46.298 55.226ZM52.775 51.905L51.088 50.109L52.261 49.007L53.948 50.803L52.775 51.905ZM76.196 54.005L74.509 52.209L75.682 51.107L77.369 52.903L76.196 54.005ZM56.508 57.517L57.235 53.705L58.816 54.007L58.089 57.819L56.508 57.517ZM64.669 53.346V50.944H66.278V53.347L64.669 53.346ZM62.071 48.522L60.38 46.653L61.573 45.573L63.264 47.442L62.071 48.522ZM67.194 56.228L70.81 54.98L71.335 56.501L67.719 57.749L67.194 56.228ZM71.836 49.027L73.78 46.82L74.987 47.884L73.043 50.091L71.836 49.027Z" fill="#252525"/>
<path d="M34.002 6.86904C32.937 6.47404 31.633 6.78004 30.812 7.99904C30.492 8.47404 30.098 9.69504 29.945 12.039C29.801 14.247 29.894 16.95 30.103 19.949L30.616 26.073L31.381 35.44C27.922 34.4 26.662 33.774 24.367 32.518L23.908 27.135L23.346 20.411C23.132 17.333 23.013 14.272 23.186 11.608C23.351 9.08004 23.804 6.31904 25.177 4.27904C27.741 0.470044 32.364 -0.900956 36.379 0.590044C40.53 2.13104 43.234 6.33104 43.234 12.008C43.234 13.86 41.718 15.361 39.847 15.361C37.976 15.361 36.46 13.86 36.46 12.008C36.46 8.46204 34.93 7.21504 34.001 6.87004L34.002 6.86904Z" fill="#4E2096"/>
</g>
<defs>
<clipPath id="clip0_2304_25">
<rect width="106" height="96" fill="white"/>
</clipPath>
</defs>
</svg>
